<svg width="512" height="512" viewBox="0 0 512 512" fill="none" xmlns="http://www.w3.org/2000/svg">
<path d="M87.9 290.15L137.1 225.05H173.7L124.35 290.15H87.9ZM87.9 311V290.15L104.25 286.25H172.35V311H87.9ZM90.3 228.95V204.2H173.7V225.05L157.05 228.95H90.3ZM184.796 311V237.2H214.196V311H184.796ZM199.496 230.3C195.196 230.3 191.596 228.85 188.696 225.95C185.896 222.95 184.496 219.3 184.496 215C184.496 210.7 185.896 207.1 188.696 204.2C191.596 201.2 195.196 199.7 199.496 199.7C203.896 199.7 207.496 201.2 210.296 204.2C213.096 207.1 214.496 210.7 214.496 215C214.496 219.3 213.096 222.95 210.296 225.95C207.496 228.85 203.896 230.3 199.496 230.3ZM249.609 311L220.659 237.2H251.859L268.809 300.05H258.159L274.959 237.2H306.009L277.059 311H249.609ZM348.27 312.8C340.17 312.8 332.92 311.15 326.52 307.85C320.22 304.45 315.22 299.8 311.52 293.9C307.92 288 306.12 281.35 306.12 273.95C306.12 266.55 307.92 259.95 311.52 254.15C315.12 248.35 320.07 243.8 326.37 240.5C332.77 237.1 340.02 235.4 348.12 235.4C356.22 235.4 363.42 237.1 369.72 240.5C376.02 243.8 380.97 248.35 384.57 254.15C388.27 259.95 390.12 266.55 390.12 273.95C390.12 281.35 388.32 288 384.72 293.9C381.12 299.8 376.17 304.45 369.87 307.85C363.57 311.15 356.37 312.8 348.27 312.8ZM348.12 287C350.62 287 352.77 286.5 354.57 285.5C356.47 284.4 357.92 282.9 358.92 281C359.92 279 360.42 276.7 360.42 274.1C360.42 271.5 359.87 269.25 358.77 267.35C357.77 265.35 356.37 263.85 354.57 262.85C352.77 261.75 350.62 261.2 348.12 261.2C345.72 261.2 343.57 261.75 341.67 262.85C339.87 263.95 338.42 265.5 337.32 267.5C336.32 269.4 335.82 271.65 335.82 274.25C335.82 276.75 336.32 279 337.32 281C338.42 282.9 339.87 284.4 341.67 285.5C343.57 286.5 345.72 287 348.12 287Z" fill="white"/>
<circle cx="410.5" cy="283.5" r="17.5" fill="#D2FB10"/>
</svg>
